<svg width="24" height="24" viewBox="0 0 24 24" fill="none" xmlns="http://www.w3.org/2000/svg">
<g clip-path="url(#clip0)">
<path d="M13 2C11.8954 2 11 2.89543 11 4C11 5.10457 11.8954 6 13 6C14.1046 6 15 5.10457 15 4C15 2.89543 14.1046 2 13 2ZM6.69336 6.27344L5.25 12.2422L7.19336 12.7129L8.63867 6.74414L6.69336 6.27344ZM11.998 7C11.0206 7 10.2108 7.7037 10.0371 8.63086L9.07617 12.4531L9.08008 12.4688C9.03285 12.6391 9 12.8146 9 13C9 13.6215 9.28949 14.1702 9.73437 14.5371L9.73633 14.5449L12.7559 17.418L14.459 21.4648L14.666 21.9805L16.5215 21.2383L14.6289 16.5059L14.627 16.5039L12.8906 13.6563L12.9336 13.4824C12.9429 13.445 12.9557 13.4093 12.9629 13.3711L13.5117 11.1855L14.541 12.6367L18.0117 13.8984L18.6953 12.0195L15.8105 10.9707L13.791 8.12695C13.4661 7.46273 12.7892 7 11.998 7L11.998 7ZM9.05273 15.9141L8.56836 17.3496L6.03906 20.8398L7.6582 22.0137L10.2773 18.4004C10.3373 18.3184 10.383 18.2288 10.416 18.1328L10.6426 17.457L9.05273 15.9141Z" fill="#83142C"/>
</g>
<defs>
<clipPath id="clip0">
<rect width="24" height="24" fill="white"/>
</clipPath>
</defs>
</svg>
