<svg width="35" height="35" viewBox="0 0 35 35" fill="none" xmlns="http://www.w3.org/2000/svg">
<path d="M15.351 1.09375C14.8019 1.09375 14.2914 1.36719 13.9859 1.82434L12.2855 4.375H6.01562C5.112 4.375 4.375 5.112 4.375 6.01562V9.29688C4.375 10.2005 5.112 10.9375 6.01562 10.9375H6.06903L8.00018 29.2706C8.14545 30.6677 9.3161 31.7187 10.7196 31.7187H24.2825C25.6839 31.7187 26.8524 30.6677 26.9998 29.2706L28.931 10.9375H28.9844C29.888 10.9375 30.625 10.2005 30.625 9.29688V6.01562C30.625 5.112 29.888 4.375 28.9844 4.375H22.7145L21.0141 1.82434C20.7086 1.36719 20.1981 1.09375 19.649 1.09375H15.351ZM15.351 2.1875H19.649C19.8328 2.1875 20.0015 2.27936 20.1041 2.43103L21.4008 4.375H13.5992L14.8959 2.43103C14.9985 2.27936 15.1672 2.1875 15.351 2.1875ZM6.01562 5.46875H28.9844C29.2856 5.46875 29.5312 5.71442 29.5312 6.01562V9.29688C29.5312 9.59808 29.2856 9.84375 28.9844 9.84375H6.5625C6.54968 9.84375 6.54114 9.85016 6.52832 9.85229C6.51764 9.85016 6.50696 9.84375 6.49414 9.84375H6.01562C5.71442 9.84375 5.46875 9.59808 5.46875 9.29688V6.01562C5.46875 5.71442 5.71442 5.46875 6.01562 5.46875ZM7.65625 6.5625C7.35291 6.5625 7.10938 6.80817 7.10938 7.10938V8.20312C7.10938 8.50433 7.35291 8.75 7.65625 8.75C7.95959 8.75 8.20312 8.50433 8.20312 8.20312V7.10938C8.20312 6.80817 7.95959 6.5625 7.65625 6.5625ZM10.3906 6.5625C10.0873 6.5625 9.84375 6.80817 9.84375 7.10938V8.20312C9.84375 8.50433 10.0873 8.75 10.3906 8.75C10.694 8.75 10.9375 8.50433 10.9375 8.20312V7.10938C10.9375 6.80817 10.694 6.5625 10.3906 6.5625ZM13.125 6.5625C12.8217 6.5625 12.5781 6.80817 12.5781 7.10938V8.20312C12.5781 8.50433 12.8217 8.75 13.125 8.75C13.4283 8.75 13.6719 8.50433 13.6719 8.20312V7.10938C13.6719 6.80817 13.4283 6.5625 13.125 6.5625ZM15.8594 6.5625C15.556 6.5625 15.3125 6.80817 15.3125 7.10938V8.20312C15.3125 8.50433 15.556 8.75 15.8594 8.75C16.1627 8.75 16.4062 8.50433 16.4062 8.20312V7.10938C16.4062 6.80817 16.1627 6.5625 15.8594 6.5625ZM19.1406 6.5625C18.8373 6.5625 18.5937 6.80817 18.5937 7.10938V8.20312C18.5937 8.50433 18.8373 8.75 19.1406 8.75C19.444 8.75 19.6875 8.50433 19.6875 8.20312V7.10938C19.6875 6.80817 19.444 6.5625 19.1406 6.5625ZM21.875 6.5625C21.5717 6.5625 21.3281 6.80817 21.3281 7.10938V8.20312C21.3281 8.50433 21.5717 8.75 21.875 8.75C22.1783 8.75 22.4219 8.50433 22.4219 8.20312V7.10938C22.4219 6.80817 22.1783 6.5625 21.875 6.5625ZM24.6094 6.5625C24.306 6.5625 24.0625 6.80817 24.0625 7.10938V8.20312C24.0625 8.50433 24.306 8.75 24.6094 8.75C24.9127 8.75 25.1562 8.50433 25.1562 8.20312V7.10938C25.1562 6.80817 24.9127 6.5625 24.6094 6.5625ZM27.3438 6.5625C27.0404 6.5625 26.7969 6.80817 26.7969 7.10938V8.20312C26.7969 8.50433 27.0404 8.75 27.3438 8.75C27.6471 8.75 27.8906 8.50433 27.8906 8.20312V7.10938C27.8906 6.80817 27.6471 6.5625 27.3438 6.5625ZM7.16919 10.9375H27.8308L25.9125 29.1553C25.8249 29.9948 25.1221 30.625 24.2804 30.625H10.7196C9.87793 30.625 9.17511 29.9948 9.08753 29.1553L7.16919 10.9375ZM12.8601 13.6719C12.7213 13.6719 12.5803 13.7253 12.4734 13.8321C12.2598 14.0457 12.2598 14.3918 12.4734 14.6054L16.7267 18.8586L12.4734 23.114C12.2598 23.3276 12.2598 23.6716 12.4734 23.8852C12.5803 23.992 12.7191 24.0454 12.8601 24.0454C13.0011 24.0454 13.14 23.992 13.2468 23.8852L17.5 19.632L21.7532 23.8852C21.86 23.992 21.9989 24.0454 22.1399 24.0454C22.2809 24.0454 22.4197 23.992 22.5266 23.8852C22.7402 23.6716 22.7402 23.3276 22.5266 23.114L18.2733 18.8586L22.5266 14.6054C22.7402 14.3918 22.7402 14.0457 22.5266 13.8321C22.3129 13.6185 21.9669 13.6185 21.7532 13.8321L17.5 18.0853L13.2468 13.8321C13.14 13.7253 12.999 13.6719 12.8601 13.6719H12.8601ZM11.4844 28.4375C11.181 28.4375 10.9375 28.6832 10.9375 28.9844C10.9375 29.2856 11.181 29.5312 11.4844 29.5312H19.1406C19.444 29.5312 19.6875 29.2856 19.6875 28.9844C19.6875 28.6832 19.444 28.4375 19.1406 28.4375H11.4844ZM21.3281 28.4375C21.0248 28.4375 20.7812 28.6832 20.7812 28.9844C20.7812 29.2856 21.0248 29.5312 21.3281 29.5312H23.5156C23.819 29.5312 24.0625 29.2856 24.0625 28.9844C24.0625 28.6832 23.819 28.4375 23.5156 28.4375H21.3281Z" fill="black"/>
</svg>
